# Blender v2.76 (sub 0) OBJ File: '2016_katsuit_v4.blend'
# www.blender.org
mtllib kathelmet_interior.mtl
o kathelmet_interior
v -1.416264 5.580607 0.000000
v -0.340374 5.502167 -1.080000
v 0.831517 5.343727 0.000000
v -0.340374 5.502167 1.080000
v -0.244324 6.632886 0.000000
v -1.147292 5.560997 0.810000
v -1.109375 6.426244 0.000000
v -1.147292 5.560997 -0.810000
v -0.268836 6.352706 -0.843750
v 0.562544 5.363337 -0.675000
v 0.571703 6.279169 0.000000
v 0.562544 5.363337 0.675000
v -0.268836 6.352706 0.843750
v -0.910523 6.189261 0.625000
v -0.910523 6.189261 -0.625000
v 0.334720 6.080317 0.625000
v 0.334720 6.080317 -0.625000
v -1.632431 4.325067 0.000000
v -0.455676 4.222114 -1.122187
v 0.671079 3.909161 0.000000
v -0.455676 4.222114 1.122187
v -1.161729 4.299328 1.169438
v -1.161729 4.299328 -1.169438
v 0.250377 4.144899 -1.063125
v 0.250377 4.144899 1.063125
vt 0.374071 0.285683
vt 0.430100 0.374274
vt 0.490614 0.237961
vt 0.281006 0.370529
vt 0.384137 0.500848
vt 0.364841 0.419282
vt 0.234094 0.523018
vt 0.384501 0.875760
vt 0.362081 0.998028
vt 0.528946 0.954350
vt 0.240177 0.999888
vt 0.131266 0.945092
vt 0.164368 0.825274
vt 0.564159 0.386992
vt 0.648495 0.471340
vt 0.648494 0.260929
vt 0.498734 0.334601
vt 0.483043 0.457985
vt 0.577825 0.607848
vt 0.066110 0.279294
vt 0.254019 0.095864
vt 0.644602 0.000112
vt 0.500283 0.004701
vt 0.327761 0.617998
vt 0.275731 0.844864
vt 0.621438 0.755095
vt 0.511853 0.702039
vt 0.125446 0.613419
vt 0.000112 0.833065
vt 0.424202 0.613195
vt 0.000112 0.407722
vt 0.003693 0.613419
vn 0.967400 -0.253300 0.000000
vn 0.666600 -0.745400 0.000000
vn 0.677700 -0.302200 -0.670400
vn 0.677700 -0.302200 0.670400
vn -0.058100 -0.668200 0.741700
vn 0.534700 -0.569100 0.624600
vn -0.063800 -0.223200 0.972700
vn -0.760600 -0.125800 0.636900
vn -0.621100 -0.452000 0.640200
vn -0.764000 -0.645100 0.000000
vn -0.621100 -0.452000 -0.640200
vn -0.760600 -0.125800 -0.636900
vn -0.058100 -0.668200 -0.741700
vn -0.063800 -0.223200 -0.972700
vn 0.534700 -0.569100 -0.624600
vn -0.087100 -0.996200 0.000000
vn 0.515900 -0.136800 0.845700
vn 0.989700 -0.142800 0.000000
vn -0.077900 -0.025800 -0.996600
vn 0.515900 -0.136800 -0.845700
vn -0.993100 0.117500 0.000000
vn -0.997300 -0.073300 0.000000
vn -0.077900 -0.025800 0.996600
vn -0.601800 0.001500 0.798700
vn -0.601800 0.001500 -0.798700
usemtl None
s 1
f 1/1/1 7/2/2 6/3/3
f 1/1/1 8/4/4 7/2/2
f 9/5/5 15/6/6 2/7/7
f 10/8/8 17/9/9 2/10/7
f 17/9/9 10/8/8 11/11/10
f 16/12/11 11/11/10 12/13/12
f 13/14/13 16/15/11 4/16/14
f 6/3/3 14/17/15 4/16/14
f 5/18/16 11/19/10 13/14/13
f 5/18/16 9/5/5 11/19/10
f 5/18/16 7/2/2 9/5/5
f 5/18/16 13/14/13 7/2/2
f 8/4/4 23/20/17 2/7/7
f 1/1/1 18/21/18 8/4/4
f 21/22/19 22/23/20 4/16/14
f 10/8/8 20/24/21 3/25/22
f 19/26/23 24/27/24 2/10/7
f 22/23/20 18/21/18 6/3/3
f 12/13/12 25/28/25 4/29/14
f 12/13/12 20/24/21 25/28/25
f 11/11/10 10/8/8 3/25/22
f 2/7/7 17/30/9 9/5/5
f 3/25/22 20/24/21 12/13/12
f 24/27/24 20/24/21 10/8/8
f 12/13/12 11/11/10 3/25/22
f 2/7/7 15/6/6 8/4/4
f 2/7/7 23/20/17 19/31/23
f 4/16/14 14/17/15 13/14/13
f 4/16/14 22/23/20 6/3/3
f 4/29/14 16/12/11 12/13/12
f 4/29/14 25/28/25 21/32/19
f 13/14/13 11/19/10 16/15/11
f 6/3/3 18/21/18 1/1/1
f 9/5/5 7/2/2 15/6/6
f 6/3/3 7/2/2 14/17/15
f 7/2/2 8/4/4 15/6/6
f 11/19/10 9/5/5 17/30/9
f 7/2/2 13/14/13 14/17/15
f 2/10/7 24/27/24 10/8/8
f 8/4/4 18/21/18 23/20/17
