# Blender v2.76 (sub 0) OBJ File: '2016_katsuit_v4.blend'
# www.blender.org
mtllib katpack.mtl
o katpack
v -2.650000 0.300000 1.350000
v -2.650000 6.200000 1.350000
v -2.650000 0.300000 -1.350000
v -2.650000 6.200000 -1.350000
v -1.700000 0.300000 1.350000
v -1.700000 6.200000 1.350000
v -1.700000 0.300000 -1.350000
v -1.700000 6.200000 -1.350000
v -2.550000 6.100000 -2.150000
v -2.550000 0.400000 -2.150000
v -1.800000 6.100000 -2.150000
v -1.800000 0.400000 -2.150000
v -2.550000 0.400000 2.150000
v -2.550000 6.100000 2.150000
v -1.800000 6.100000 2.150000
v -1.800000 0.400000 2.150000
v -2.650000 2.525000 1.350000
v -2.650000 2.525000 -1.350000
v -1.700000 2.525000 -1.350000
v -1.700000 2.525000 1.350000
v -2.550000 2.525000 -2.150000
v -1.800000 2.525000 -2.150000
v -2.550000 2.525000 2.150000
v -1.800000 2.525000 2.150000
v -2.650000 1.975000 -1.350000
v -1.700000 1.975000 -1.350000
v -1.700000 1.975000 1.350000
v -2.550000 1.975000 -2.150000
v -1.800000 1.975000 -2.150000
v -1.800000 1.975000 2.150000
v -2.650000 1.975000 1.350000
v -2.550000 1.975000 2.150000
v 0.800000 2.525000 1.350000
v 1.345976 2.656569 1.950000
v 0.800000 2.525000 -1.350000
v 1.345976 2.656569 -1.950000
v 1.300000 1.975000 -1.350000
v 1.300000 1.975000 1.350000
v 1.391952 3.063138 1.350000
v 1.391952 3.063138 -1.350000
v 1.891952 3.063138 -1.350000
v 1.891952 3.063138 1.350000
v -2.650000 6.200000 1.850000
v -1.700000 6.200000 1.850000
v -1.700000 0.300000 1.850000
v -2.650000 0.300000 1.850000
v -2.650000 2.525000 1.850000
v -1.700000 2.525000 1.850000
v -1.700000 1.975000 1.850000
v -2.650000 1.975000 1.850000
v 0.800000 2.525000 1.750000
v 1.300000 1.975000 1.750000
v 1.391952 3.063138 1.750000
v 1.891952 3.063138 1.750000
v -1.700000 0.300000 -1.850000
v -1.700000 6.200000 -1.850000
v -2.650000 0.300000 -1.850000
v -2.650000 6.200000 -1.850000
v -2.650000 2.525000 -1.850000
v -1.700000 2.525000 -1.850000
v -2.650000 1.975000 -1.850000
v -1.700000 1.975000 -1.850000
v 0.800000 2.525000 -1.750000
v 1.300000 1.975000 -1.750000
v 1.391952 3.063138 -1.750000
v 1.891952 3.063138 -1.750000
v -2.650000 5.900000 1.350000
v -2.550000 5.900000 2.150000
v -2.650000 5.900000 -1.350000
v -1.700000 5.900000 -1.350000
v -1.700000 5.900000 1.350000
v -2.550000 5.900000 -2.150000
v -1.800000 5.900000 -2.150000
v -1.800000 5.900000 2.150000
v -2.650000 5.900000 1.850000
v -1.700000 5.900000 1.850000
v -1.700000 5.900000 -1.850000
v -2.650000 5.900000 -1.850000
v -2.650000 0.600000 -1.350000
v -1.700000 0.600000 -1.350000
v -1.700000 0.600000 1.350000
v -2.550000 0.600000 -2.150000
v -1.800000 0.600000 -2.150000
v -1.800000 0.600000 2.150000
v -2.650000 0.600000 1.350000
v -2.550000 0.600000 2.150000
v -1.700000 0.600000 1.850000
v -2.650000 0.600000 1.850000
v -2.650000 0.600000 -1.850000
v -1.700000 0.600000 -1.850000
vt 0.418756 0.123544
vt 0.161135 0.121417
vt 0.161312 0.092336
vt 0.418714 0.095226
vt 0.968909 0.029623
vt 0.968919 0.000303
vt 0.999821 0.010087
vt 0.999814 0.029633
vt 0.920043 0.029606
vt 0.656167 0.029515
vt 0.656177 0.000196
vt 0.920053 0.000286
vt 0.472091 0.753445
vt 0.457506 0.663498
vt 0.488057 0.661208
vt 0.504405 0.736600
vt 0.153552 0.000179
vt 0.428081 0.000296
vt 0.421113 0.758850
vt 0.144529 0.758850
vt 0.154684 0.663259
vt 0.412743 0.665971
vt 0.084191 0.116316
vt 0.010077 0.109841
vt 0.011818 0.089879
vt 0.086678 0.096408
vt 0.103123 0.005247
vt 0.116969 0.094428
vt 0.071038 0.021694
vt 0.109348 0.662069
vt 0.090233 0.750062
vt 0.061065 0.732948
vt 0.078077 0.658391
vt 0.107525 0.635145
vt 0.076549 0.637892
vt 0.572685 0.115432
vt 0.496564 0.119587
vt 0.494783 0.099176
vt 0.571598 0.094951
vt 0.607123 0.547477
vt 0.607113 0.576796
vt 0.576211 0.567012
vt 0.576218 0.547466
vt 0.465817 0.122685
vt 0.463710 0.095927
vt 0.481881 0.008518
vt 0.510925 0.025189
vt 0.460107 0.637559
vt 0.469490 0.309987
vt 0.500673 0.310305
vt 0.490340 0.641144
vt 0.006571 0.851659
vt 0.009832 0.807969
vt 0.275331 0.822946
vt 0.270957 0.868173
vt 0.564652 0.646575
vt 0.575550 0.310902
vt 0.107618 0.251910
vt 0.106231 0.305824
vt 0.075098 0.305273
vt 0.076620 0.250781
vt 0.000651 0.641027
vt 0.000179 0.303577
vt 0.919864 0.547584
vt 0.655989 0.547493
vt 0.656102 0.217649
vt 0.919978 0.217740
vt 0.968730 0.547601
vt 0.968844 0.217756
vt 0.999749 0.217767
vt 0.999636 0.547612
vt 0.412707 0.636743
vt 0.154873 0.634861
vt 0.155237 0.306795
vt 0.420469 0.309595
vt 0.114178 0.120151
vt 0.607301 0.029499
vt 0.607255 0.163880
vt 0.576350 0.163869
vt 0.576396 0.029488
vt 0.469548 0.255929
vt 0.500719 0.255650
vt 0.575853 0.255229
vt 0.001824 0.247998
vt 0.656121 0.163896
vt 0.919996 0.163987
vt 0.707039 0.597712
vt 0.760138 0.577279
vt 0.863921 0.854552
vt 0.829616 0.861489
vt 0.156315 0.253324
vt 0.420670 0.256045
vt 0.314004 0.759208
vt 0.394826 0.827626
vt 0.354978 0.843086
vt 0.011264 0.759208
vt 0.291336 0.934667
vt 0.003011 0.899199
vt 0.759909 0.861678
vt 0.662652 0.616166
vt 0.576211 0.649869
vt 0.622038 0.633110
vt 0.719679 0.881789
vt 0.671459 0.936801
vt 0.322467 0.897730
vt 0.349668 0.874529
vt 0.380156 0.907466
vt 0.760774 0.949865
vt 0.758256 0.991118
vt 0.863921 0.955794
vt 0.831229 0.955794
vt 0.789358 0.936641
vt 0.815907 0.989291
vt 0.774035 0.970138
vt 0.576331 0.217621
vt 0.607237 0.217632
vt 0.655979 0.576813
vt 0.294185 0.968182
vt 0.390918 0.941722
vt 0.376018 0.850138
vt 0.406506 0.883076
vt 0.000179 0.955710
vt 0.968862 0.164004
vt 0.999768 0.164015
vt 0.803695 0.902765
vt 0.919854 0.576904
vt 0.968720 0.576921
vt 0.999629 0.567158
vt 0.001428 0.661469
vt 0.563210 0.666616
vt 0.607311 0.000179
vt 0.576403 0.009942
vn -1.000000 0.000000 0.000000
vn -0.707100 -0.707100 0.000000
vn 0.987100 0.000000 -0.160200
vn 0.692800 -0.692800 -0.200000
vn 0.476800 -0.476800 -0.738400
vn 0.584700 0.000000 -0.811200
vn 1.000000 0.000000 0.000000
vn 0.707100 -0.707100 0.000000
vn 0.692800 0.692800 0.200000
vn -0.692800 0.692800 0.200000
vn -0.476800 0.476800 0.738400
vn 0.476800 0.476800 0.738500
vn 0.707100 0.707100 0.000000
vn -0.707100 0.707100 0.000000
vn -0.584700 0.000000 -0.811200
vn -0.476800 -0.476800 -0.738400
vn -0.692800 -0.692800 -0.200000
vn -0.692800 0.692800 -0.200000
vn 0.692800 0.692800 -0.200000
vn 0.476800 0.476800 -0.738500
vn -0.476800 0.476800 -0.738400
vn -0.987100 0.000000 -0.160200
vn 0.584700 0.000000 0.811200
vn -0.584700 0.000000 0.811200
vn -0.476800 -0.476800 0.738400
vn 0.476800 -0.476800 0.738400
vn 0.987100 0.000000 0.160200
vn -0.987100 0.000000 0.160200
vn -0.692800 -0.692800 0.200000
vn 0.692800 -0.692800 0.200000
vn 0.838200 0.283100 -0.466100
vn 0.904500 0.301500 0.301500
vn -0.217300 0.562200 0.797900
vn -0.306100 0.563500 -0.767200
vn 0.904500 0.301500 -0.301500
vn 0.840100 -0.275600 0.467200
vn 0.904500 -0.301500 -0.301500
vn 0.904500 -0.301500 0.301500
vn 0.405600 -0.682400 -0.608100
vn 0.390800 -0.734800 0.554300
vn 0.405600 -0.682400 0.608100
vn 0.714700 0.424800 0.555600
vn -0.278800 0.721100 0.634200
vn 0.390800 -0.734800 -0.554300
vn 0.840100 -0.275600 -0.467200
vn -0.306100 0.563500 0.767200
vn 0.838200 0.283100 0.466100
vn -0.217300 0.562200 -0.797900
vn 0.009700 0.043500 -0.999000
vn -0.300600 0.830400 -0.469000
vn 0.752600 0.452400 -0.478500
vn -0.278800 0.721100 -0.634200
vn 0.714700 0.424800 -0.555600
vn 0.752600 0.452400 0.478500
vn -0.300600 0.830400 0.469000
vn 0.009700 0.043500 0.999000
usemtl None
s 1
f 85/1/1 79/2/1 3/3/2 1/4/2
f 90/5/3 55/6/4 12/7/5 83/8/6
f 80/9/7 81/10/7 5/11/8 7/12/8
f 44/13/9 43/14/10 14/15/11 15/16/12
f 1/4/2 3/3/2 7/17/8 5/18/8
f 6/19/13 8/20/13 4/21/14 2/22/14
f 82/23/15 83/24/6 12/25/5 10/26/16
f 55/27/4 57/28/17 10/26/16 12/29/5
f 58/30/18 56/31/19 11/32/20 9/33/21
f 78/34/22 58/30/18 9/33/21 72/35/15
f 84/36/23 86/37/24 13/38/25 16/39/26
f 76/40/27 44/41/9 15/42/12 74/43/23
f 88/44/28 46/45/29 13/38/25 86/37/24
f 46/45/29 45/46/30 16/47/26 13/38/25
f 75/48/28 47/49/28 23/50/24 68/51/24
f 60/52/31 19/53/32 35/54/33 63/55/34
f 74/56/23 68/51/24 23/50/24 24/57/23
f 61/58/22 59/59/22 21/60/15 28/61/15
f 72/35/15 73/62/6 22/63/6 21/60/15
f 70/64/7 71/65/7 20/66/35 19/67/32
f 77/68/3 60/69/31 22/70/6 73/71/6
f 67/72/1 69/73/1 18/74/1 17/75/1
f 89/76/22 61/58/22 28/61/15 82/23/15
f 87/77/27 49/78/36 30/79/23 84/80/23
f 47/49/28 50/81/28 32/82/24 23/50/24
f 24/57/23 23/50/24 32/82/24 30/83/23
f 21/60/15 22/63/6 29/84/6 28/61/15
f 19/67/32 20/66/35 27/85/37 26/86/38
f 49/87/36 27/88/37 38/89/39 52/90/40
f 17/75/1 18/74/1 25/91/1 31/92/1
f 35/54/33 37/93/41 41/94/42 40/95/43
f 19/53/32 26/96/38 37/93/41 35/54/33
f 64/97/44 62/98/45 60/52/31 63/55/34
f 52/90/40 51/99/46 48/100/47 49/87/36
f 27/101/37 20/102/35 33/103/48 38/104/39
f 36/105/49 63/55/34 65/106/50
f 64/97/44 36/105/49 66/107/51
f 65/106/50 66/107/51 36/105/49
f 38/104/39 33/103/48 39/108/52 42/109/53
f 63/55/34 35/54/33 40/95/43 65/106/50
f 52/90/40 38/89/39 42/110/53 54/111/54
f 36/105/49 64/97/44 63/55/34
f 33/103/48 51/99/46 53/112/55 39/108/52
f 42/113/53 39/114/52 53/112/55 54/111/54
f 20/102/35 48/100/47 51/99/46 33/103/48
f 24/115/23 30/79/23 49/78/36 48/116/47
f 17/75/1 31/92/1 50/81/28 47/49/28
f 81/10/7 27/85/37 49/78/36 87/77/27
f 67/72/1 17/75/1 47/49/28 75/48/28
f 1/4/2 5/18/8 45/46/30 46/45/29
f 85/1/1 1/4/2 46/45/29 88/44/28
f 71/65/7 6/117/13 44/41/9 76/40/27
f 6/19/13 2/22/14 43/14/10 44/13/9
f 37/118/41 64/97/44 66/107/51 41/119/42
f 40/120/43 41/121/42 66/107/51 65/106/50
f 26/122/38 62/98/45 64/97/44 37/118/41
f 79/2/1 25/91/1 61/58/22 89/76/22
f 70/64/7 19/67/32 60/69/31 77/68/3
f 25/91/1 18/74/1 59/59/22 61/58/22
f 22/70/6 60/69/31 62/123/45 29/124/6
f 69/73/1 4/21/14 58/30/18 78/34/22
f 4/21/14 8/20/13 56/31/19 58/30/18
f 7/17/8 3/3/2 57/28/17 55/27/4
f 80/9/7 7/12/8 55/6/4 90/5/3
f 34/125/56 51/99/46 52/90/40
f 54/111/54 53/112/55 34/125/56
f 51/99/46 34/125/56 53/112/55
f 34/125/56 52/90/40 54/111/54
f 18/74/1 69/73/1 78/34/22 59/59/22
f 8/126/13 70/64/7 77/68/3 56/127/19
f 20/66/35 71/65/7 76/40/27 48/116/47
f 2/22/14 67/72/1 75/48/28 43/14/10
f 2/22/14 4/21/14 69/73/1 67/72/1
f 56/127/19 77/68/3 73/71/6 11/128/20
f 8/126/13 6/117/13 71/65/7 70/64/7
f 9/33/21 11/129/20 73/62/6 72/35/15
f 15/130/12 14/15/11 68/51/24 74/56/23
f 43/14/10 75/48/28 68/51/24 14/15/11
f 48/116/47 76/40/27 74/43/23 24/115/23
f 59/59/22 78/34/22 72/35/15 21/60/15
f 26/86/38 80/9/7 90/5/3 62/123/45
f 3/3/2 79/2/1 89/76/22 57/28/17
f 31/92/1 85/1/1 88/44/28 50/81/28
f 5/11/8 81/10/7 87/77/27 45/131/30
f 45/131/30 87/77/27 84/80/23 16/132/26
f 57/28/17 89/76/22 82/23/15 10/26/16
f 50/81/28 88/44/28 86/37/24 32/82/24
f 30/83/23 32/82/24 86/37/24 84/36/23
f 28/61/15 29/84/6 83/24/6 82/23/15
f 26/86/38 27/85/37 81/10/7 80/9/7
f 62/123/45 90/5/3 83/8/6 29/124/6
f 31/92/1 25/91/1 79/2/1 85/1/1
