# Blender v2.76 (sub 0) OBJ File: '2016_katsuit_v4.blend'
# www.blender.org
mtllib katvodka.mtl
o katvodka
v -0.396000 -1.455000 0.396000
v -0.400000 0.345000 0.400000
v -0.396000 -1.455000 -0.396000
v -0.400000 0.345000 -0.400000
v 0.396000 -1.455000 0.396000
v 0.400000 0.345000 0.400000
v 0.396000 -1.455000 -0.396000
v 0.400000 0.345000 -0.400000
v -0.126000 0.735000 0.126000
v -0.126000 0.735000 -0.126000
v 0.126000 0.735000 -0.126000
v 0.126000 0.735000 0.126000
v -0.126000 1.455000 0.126000
v -0.126000 1.455000 -0.126000
v 0.126000 1.455000 -0.126000
v 0.126000 1.455000 0.126000
v -0.370000 -1.005000 -0.370000
v 0.370000 -1.005000 -0.370000
v 0.370000 -1.005000 0.370000
v -0.370000 -1.005000 0.370000
vt 0.654708 0.563607
vt 0.535682 0.478047
vt 0.586193 0.398898
vt 0.713202 0.494658
vt 0.394591 0.403331
vt 0.436513 0.311389
vt 0.230962 0.348005
vt 0.260540 0.242443
vt 0.043562 0.313128
vt 0.061955 0.198670
vt 0.105728 0.000084
vt 0.304313 0.043857
vt 0.181981 0.613046
vt 0.306063 0.629993
vt 0.260498 0.751438
vt 0.182900 0.754378
vt 0.228809 0.951310
vt 0.174014 0.945710
vt 0.408712 0.677477
vt 0.505467 0.773861
vt 0.395402 0.804924
vt 0.335674 0.766421
vt 0.000084 0.654045
vt 0.113548 0.775587
vt 0.174014 0.999916
vt 0.119808 0.999916
vt 0.119808 0.945710
vt 0.345064 0.980758
vt 0.283522 0.963140
vn -0.706900 0.025700 0.706900
vn -0.706900 0.025700 -0.706900
vn -0.591900 -0.547000 -0.591900
vn -0.591900 -0.547000 0.591900
vn 0.706900 0.025700 -0.706900
vn 0.591900 -0.547000 -0.591900
vn 0.706900 0.025700 0.706900
vn 0.591900 -0.547000 0.591900
vn 0.670600 0.316900 0.670600
vn 0.670600 0.316900 -0.670600
vn 0.627800 0.460100 -0.627800
vn 0.627800 0.460100 0.627800
vn 0.577300 0.577300 -0.577300
vn 0.577300 0.577300 0.577300
vn -0.670600 0.316900 -0.670600
vn -0.670600 0.316900 0.670600
vn -0.627800 0.460100 0.627800
vn -0.627800 0.460100 -0.627800
vn -0.577300 0.577300 -0.577300
vn -0.577300 0.577300 0.577300
usemtl None
s 1
f 20/1/1 17/2/2 3/3/3 1/4/4
f 17/2/2 18/5/5 7/6/6 3/3/3
f 18/5/5 19/7/7 5/8/8 7/6/6
f 19/7/7 20/9/1 1/10/4 5/8/8
f 1/10/4 3/11/3 7/12/6 5/8/8
f 6/13/9 8/14/10 11/15/11 12/16/12
f 12/16/12 11/15/11 15/17/13 16/18/14
f 4/19/15 2/20/16 9/21/17 10/22/18
f 2/23/16 6/13/9 12/16/12 9/24/17
f 8/14/10 4/19/15 10/22/18 11/15/11
f 16/18/14 15/25/13 14/26/19 13/27/20
f 10/22/18 9/21/17 13/28/20 14/29/19
f 9/24/17 12/16/12 16/18/14 13/27/20
f 11/15/11 10/22/18 14/29/19 15/17/13
f 6/13/9 19/7/7 18/5/5 8/14/10
f 8/14/10 18/5/5 17/2/2 4/19/15
f 4/19/15 17/2/2 20/1/1 2/20/16
f 2/23/16 20/9/1 19/7/7 6/13/9
