# Blender v2.76 (sub 0) OBJ File: '2016_katsuit_v5.blend'
# www.blender.org
mtllib ushanka.mtl
o ushanka
v -1.697494 5.803692 0.000000
v -1.658535 6.189456 0.000000
v -1.658535 5.803692 -0.462917
v -1.658535 5.417928 0.000000
v -1.658535 5.803692 0.462917
v -1.621869 6.162721 0.430833
v -1.621869 6.162721 -0.430833
v -1.621869 5.444664 -0.430833
v -1.621869 5.444664 0.430833
v -0.812401 5.803692 -1.006646
v -0.812401 6.189456 -0.983271
v -0.261221 5.803692 -0.983271
v -0.812401 5.417928 -0.983271
v -1.198165 5.803692 -0.983271
v -1.171429 6.162721 -0.961271
v -0.257262 6.162721 -0.961271
v -0.297262 5.444664 -0.961271
v -1.171429 5.444664 -0.961271
v 0.094741 5.803692 0.000000
v 0.105783 6.189456 0.000000
v 0.080783 5.803692 0.462917
v 0.130783 5.417928 0.000000
v 0.080783 5.803692 -0.462917
v 0.119116 6.162721 -0.430833
v 0.119116 6.162721 0.430833
v -0.005884 5.444664 0.430833
v -0.005884 5.444664 -0.430833
v -0.812401 5.803692 1.006646
v -0.812401 6.189456 0.983271
v -1.198165 5.803692 0.983271
v -0.812401 5.417928 0.983271
v -0.261221 5.803692 0.983271
v -0.257262 6.162721 0.961271
v -1.171429 6.162721 0.961271
v -1.171429 5.444664 0.961271
v -0.297262 5.444664 0.961271
v -0.812401 5.163414 0.000000
v -1.198165 5.098483 0.000000
v -0.812401 5.098483 -0.462917
v -0.321221 5.098483 0.000000
v -0.812401 5.098483 0.462917
v -1.171429 5.037372 0.430833
v -1.171429 5.037372 -0.430833
v -0.337262 5.037372 -0.430833
v -0.337262 5.037372 0.430833
v -0.812401 6.688785 0.000000
v -0.173542 6.655063 0.000000
v -0.812401 6.649827 -0.462917
v -1.198165 6.649827 0.000000
v -0.812401 6.649827 0.462917
v -0.200011 6.614729 0.473917
v -0.200011 6.614729 -0.473917
v -1.171429 6.613160 -0.430833
v -1.171429 6.613160 0.430833
v -1.513015 5.471400 0.790625
v -1.542233 5.803692 0.849063
v -1.513015 6.135985 0.790625
v -1.513015 6.504306 0.398750
v -1.542233 6.533525 0.000000
v -1.513015 6.504306 -0.398750
v -1.513015 6.135985 -0.790625
v -1.542233 5.803692 -0.849063
v -1.513015 5.471400 -0.790625
v -1.513015 5.144838 -0.398750
v -1.542233 5.096140 0.000000
v -1.513015 5.144838 0.398750
v -1.144693 6.504306 -0.790625
v -0.812401 6.533525 -0.849063
v -0.226480 6.494990 -0.869688
v -0.014738 6.135985 -0.790625
v 0.014481 5.803692 -0.849063
v -0.014738 5.471400 -0.790625
v -0.353304 5.144838 -0.790625
v -0.812401 5.096140 -0.849063
v -1.144693 5.144838 -0.790625
v 0.096817 6.494990 -0.526350
v 0.145028 6.527131 0.000000
v 0.096817 6.494990 0.526350
v -0.014738 6.135985 0.790625
v 0.014481 5.803692 0.849063
v -0.014738 5.471400 0.790625
v -0.157366 5.144838 0.398750
v -0.128148 5.096140 0.000000
v -0.157366 5.144838 -0.398750
v -0.226480 6.494990 0.869688
v -0.812401 6.533525 0.849063
v -1.144693 6.504306 0.790625
v -1.144693 5.144838 0.790625
v -0.812401 5.096140 0.849063
v -0.353304 5.144838 0.790625
v -1.453813 5.243507 0.672222
v -1.453813 6.445106 0.672222
v -1.453813 5.243507 -0.672222
v -1.453813 6.445106 -0.672222
v -0.216568 5.243507 0.672222
v -0.000865 6.429870 0.887334
v -0.216568 5.243507 -0.672222
v -0.000865 6.429870 -0.887334
v -0.812401 4.274018 -1.098225
v -0.812401 4.177482 -0.951684
v -0.337262 4.332039 -1.052025
v -0.157366 4.440059 -0.914869
v -0.353304 4.242091 -0.914869
v -1.171429 4.332039 -1.052025
v -1.144693 4.242091 -0.914869
v -1.513015 4.440059 -0.914869
v -0.812401 4.274018 1.098225
v -0.812401 4.177482 0.951684
v -1.171429 4.332039 1.052025
v -1.513015 4.440059 0.914869
v -1.144693 4.242091 0.914869
v -0.337262 4.332039 1.052025
v -0.353304 4.242091 0.914869
v -0.157366 4.440059 0.914869
v -1.453813 4.371692 0.840275
v -1.453813 4.371692 -0.840275
v -0.216568 4.371692 -0.840275
v -0.216568 4.371692 0.840275
v -0.173542 6.765063 0.000000
v 0.145028 6.692131 0.000000
v -0.200011 6.724730 0.473917
v -0.226480 6.704990 0.869688
v 0.096817 6.659990 0.526350
v -0.200011 6.724730 -0.473917
v 0.096817 6.659990 -0.526350
v -0.226480 6.704990 -0.869688
v -0.000865 6.694870 -0.887334
v -0.000865 6.694870 0.887334
v -0.337262 4.938352 -1.065094
v -1.453813 4.857599 -0.802931
v -1.171429 4.938352 -1.065094
v -0.812401 4.895973 -1.101761
v -0.812401 4.686811 -0.953245
v -1.144693 4.743464 -0.903573
v -1.513015 5.005730 -0.903573
v -0.086052 5.005730 -0.903573
v -0.216568 4.857599 -0.802931
v -0.353304 4.743464 -0.903573
v -0.086052 5.005730 0.903573
v -0.216568 4.857599 0.802931
v -1.144693 4.743464 0.903573
v -1.453813 4.857599 0.802931
v -1.513015 5.005730 0.903573
v -0.812401 4.686811 0.953245
v -0.812401 4.895973 1.101761
v -0.337262 4.938352 1.065094
v -1.171429 4.938352 1.065094
v -0.353304 4.743464 0.903573
vt 0.707605 0.838146
vt 0.773546 0.838115
vt 0.769409 0.889730
vt 0.707605 0.893268
vt 0.766540 0.942159
vt 0.707605 0.945730
vt 0.831893 0.838039
vt 0.824369 0.887507
vt 0.808334 0.934787
vt 0.645801 0.889730
vt 0.641664 0.838116
vt 0.590840 0.887507
vt 0.583316 0.838040
vt 0.648670 0.942159
vt 0.606875 0.934787
vt 0.645905 0.786559
vt 0.707605 0.783031
vt 0.648656 0.739923
vt 0.707605 0.733669
vt 0.590972 0.788595
vt 0.606513 0.752680
vt 0.769304 0.786559
vt 0.824238 0.788594
vt 0.766554 0.739923
vt 0.808696 0.752679
vt 0.201038 0.473386
vt 0.230609 0.424044
vt 0.270159 0.450527
vt 0.256072 0.498808
vt 0.315242 0.465244
vt 0.310430 0.510025
vt 0.258385 0.387081
vt 0.289963 0.410387
vt 0.321286 0.428305
vt 0.220605 0.595464
vt 0.152799 0.559786
vt 0.443648 0.862646
vt 0.422229 0.916363
vt 0.381038 0.895246
vt 0.398094 0.848757
vt 0.293860 0.621202
vt 0.390653 0.963005
vt 0.373082 0.934474
vt 0.096601 0.512208
vt 0.152366 0.438068
vt 0.517385 0.737969
vt 0.466046 0.722859
vt 0.519722 0.663993
vt 0.555061 0.650535
vt 0.407714 0.791632
vt 0.464413 0.808331
vt 0.423797 0.139607
vt 0.411095 0.103869
vt 0.448891 0.093159
vt 0.442447 0.109239
vt 0.189287 0.396111
vt 0.230680 0.347578
vt 0.162304 0.322803
vt 0.132789 0.358513
vt 0.099163 0.320334
vt 0.119074 0.314917
vt 0.087149 0.685355
vt 0.085764 0.721082
vt 0.034232 0.662992
vt 0.035320 0.649862
vt 0.274064 0.832459
vt 0.341475 0.837425
vt 0.329252 0.886375
vt 0.273478 0.885812
vt 0.333566 0.927280
vt 0.272927 0.926944
vt 0.217865 0.885022
vt 0.206801 0.836087
vt 0.166262 0.892549
vt 0.150477 0.846146
vt 0.212496 0.925578
vt 0.173090 0.931609
vt 0.205116 0.777411
vt 0.274523 0.778068
vt 0.210761 0.720280
vt 0.274843 0.719612
vt 0.142067 0.789535
vt 0.152674 0.725253
vt 0.344196 0.778382
vt 0.339179 0.720765
vt 0.397868 0.726309
vt 0.548331 0.262419
vt 0.648169 0.259681
vt 0.648169 0.337045
vt 0.545377 0.323422
vt 0.636627 0.414384
vt 0.530015 0.377091
vt 0.105241 0.858822
vt 0.125005 0.912358
vt 0.154881 0.959326
vt 0.495766 0.313516
vt 0.490499 0.265915
vt 0.450786 0.312558
vt 0.444630 0.273614
vt 0.487930 0.360527
vt 0.452258 0.348764
vt 0.484679 0.216020
vt 0.539370 0.202417
vt 0.096643 0.383489
vt 0.034652 0.430372
vt 0.000140 0.324718
vt 0.070670 0.323014
vt 0.422181 0.230654
vt 0.123701 0.280354
vt 0.149533 0.307677
vt 0.114351 0.310459
vt 0.097320 0.308918
vt 0.631906 0.186984
vt 0.085989 0.804935
vt 0.092960 0.260377
vt 0.071767 0.305807
vt 0.237727 0.144582
vt 0.300869 0.110471
vt 0.321677 0.161266
vt 0.267670 0.193269
vt 0.337983 0.207907
vt 0.290654 0.230739
vt 0.353462 0.086079
vt 0.368134 0.134910
vt 0.389049 0.197290
vt 0.214797 0.226916
vt 0.178991 0.185566
vt 0.170475 0.256282
vt 0.133790 0.221351
vt 0.248857 0.262487
vt 0.216267 0.303023
vt 0.136660 0.120186
vt 0.196631 0.078039
vt 0.274921 0.689059
vt 0.345490 0.686620
vt 0.090276 0.162556
vt 0.410713 0.688422
vt 0.261222 0.043062
vt 0.320193 0.020294
vt 0.204700 0.686380
vt 0.140316 0.687855
vt 0.439581 0.475964
vt 0.495178 0.427293
vt 0.593501 0.506518
vt 0.504759 0.583909
vt 0.358727 0.951234
vt 0.330887 0.945162
vt 0.339129 0.993686
vt 0.332606 0.980259
vt 0.361533 0.963625
vt 0.395031 0.626129
vt 0.370817 0.502518
vt 0.214639 0.943429
vt 0.186822 0.948629
vt 0.204893 0.991382
vt 0.183668 0.960842
vt 0.211821 0.978268
vt 0.360569 0.453047
vt 0.409812 0.426682
vt 0.347649 0.412391
vt 0.387097 0.389178
vt 0.456036 0.395179
vt 0.425927 0.364844
vt 0.005124 0.295486
vt 0.518792 0.650433
vt 0.534847 0.626410
vt 0.473851 0.075617
vt 0.458315 0.100085
vt 0.457836 0.068609
vt 0.444285 0.115544
vt 0.479117 0.003759
vt 0.507972 0.012777
vt 0.000140 0.649406
vt 0.020126 0.626410
vt 0.847801 0.721459
vt 0.833385 0.697447
vt 0.847173 0.626410
vt 0.859868 0.638320
vt 0.407163 0.067058
vt 0.587284 0.093042
vt 0.516267 0.127055
vt 0.465079 0.686308
vt 0.477114 0.147975
vt 0.389384 0.000140
vt 0.469972 0.652056
vt 0.082702 0.651939
vt 0.035356 0.735078
vt 0.041803 0.214864
vt 0.431490 0.158019
vt 0.581824 0.697448
vt 0.567409 0.721460
vt 0.555342 0.638320
vt 0.568036 0.626410
vt 0.271995 0.984780
vt 0.272641 0.945870
vt 0.271740 0.999860
vn -1.000000 0.000000 0.000000
vn -0.980700 0.000000 0.195700
vn -0.958600 0.212300 0.189400
vn -0.976700 0.214500 0.000000
vn -0.692800 0.692800 0.199800
vn -0.707100 0.707100 0.000000
vn -0.737800 0.000000 0.674900
vn -0.728400 0.257500 0.634900
vn -0.615100 0.615100 0.493100
vn -0.958600 0.212300 -0.189400
vn -0.980700 0.000000 -0.195700
vn -0.728400 0.257500 -0.634900
vn -0.737800 0.000000 -0.674900
vn -0.692800 0.692800 -0.199800
vn -0.615100 0.615100 -0.493100
vn -0.950900 -0.237300 -0.198500
vn -0.973200 -0.229900 0.000000
vn -0.648200 -0.737400 -0.190100
vn -0.629000 -0.777400 0.000000
vn -0.804900 -0.115900 -0.582000
vn -0.822700 -0.560600 0.093400
vn -0.950900 -0.237300 0.198500
vn -0.804900 -0.115900 0.582000
vn -0.648200 -0.737400 0.190100
vn -0.822700 -0.560600 -0.093400
vn -0.009900 -0.000600 -0.999900
vn -0.246800 0.000000 -0.969100
vn -0.255700 0.255700 -0.932300
vn -0.036100 0.219600 -0.974900
vn -0.257500 0.728400 -0.634900
vn -0.052300 0.733200 -0.677900
vn 0.218600 0.124600 -0.967800
vn 0.281700 -0.009000 -0.959400
vn 0.785800 0.008600 -0.618300
vn 0.800100 -0.049400 -0.597800
vn -0.163600 0.360600 -0.918200
vn 0.643500 -0.033600 -0.764600
vn 0.283700 0.036100 -0.958200
vn -0.008900 0.080300 -0.996700
vn 0.308500 0.073500 -0.948400
vn 0.977000 -0.098200 -0.189200
vn 0.947900 -0.288500 -0.135000
vn 0.415700 -0.466800 -0.780500
vn 0.868500 -0.236900 -0.435300
vn -0.417000 -0.151300 -0.896200
vn 0.183900 -0.144400 -0.972300
vn -0.146500 -0.875300 -0.460800
vn -0.466900 -0.674600 -0.571800
vn -0.240400 0.055900 -0.969100
vn -0.913300 0.029300 -0.406200
vn -0.246300 0.098300 -0.964200
vn -0.322800 -0.469100 -0.822000
vn -0.907000 -0.292200 -0.303100
vn 0.156900 -0.210500 -0.964900
vn 0.977000 -0.098200 0.189200
vn 0.947900 -0.288500 0.135000
vn 0.345400 -0.562100 -0.751400
vn 0.997500 -0.070600 0.000000
vn 0.987800 -0.074000 -0.137300
vn 0.990400 -0.039500 -0.132500
vn 0.998800 -0.047500 0.000000
vn 0.982800 -0.027600 -0.182300
vn 0.999900 -0.014500 0.000000
vn 0.990400 -0.039500 0.132500
vn 0.987800 -0.074000 0.137300
vn 0.785800 0.008600 0.618300
vn 0.800100 -0.049400 0.597800
vn 0.982800 -0.027600 0.182300
vn 0.643500 -0.033600 0.764600
vn 0.914400 -0.363100 0.178900
vn 0.946800 -0.321900 0.000000
vn 0.640400 -0.746300 0.181400
vn 0.585300 -0.810800 0.000000
vn 0.868500 -0.236900 0.435300
vn 0.741000 -0.640200 -0.202500
vn 0.914400 -0.363100 -0.178900
vn 0.640400 -0.746300 -0.181400
vn 0.741000 -0.640200 0.202500
vn -0.009900 -0.000600 0.999900
vn 0.281700 -0.009000 0.959400
vn 0.218600 0.124600 0.967800
vn -0.036100 0.219600 0.974900
vn -0.163600 0.360600 0.918200
vn -0.052300 0.733200 0.677900
vn -0.255700 0.255700 0.932300
vn -0.246800 0.000000 0.969100
vn -0.257500 0.728400 0.634900
vn -0.240400 0.055900 0.969100
vn -0.008900 0.080300 0.996700
vn -0.011600 0.091300 -0.995700
vn -0.022600 -0.502300 -0.864300
vn 0.183900 -0.144400 0.972300
vn -0.417000 -0.151300 0.896200
vn -0.466900 -0.674600 0.571800
vn -0.146500 -0.875300 0.460800
vn 0.283700 0.036100 0.958200
vn 0.016800 -0.122500 0.992300
vn -0.013500 -0.915800 0.401400
vn 0.019400 -0.999800 0.000000
vn 0.008900 -0.999900 0.004900
vn -0.085400 -0.992800 0.083400
vn 0.005000 -1.000000 0.000000
vn 0.012500 -0.784700 -0.619700
vn 0.036200 -0.834700 -0.549500
vn -0.085400 -0.992800 -0.083400
vn 0.008900 -0.999900 -0.004900
vn 0.036200 -0.834700 0.549500
vn 0.012500 -0.784700 0.619700
vn 0.201800 -0.975900 -0.082600
vn 0.074600 -0.997200 0.000000
vn -0.110700 -0.784100 0.610600
vn 0.201800 -0.975900 0.082600
vn -0.110700 -0.784100 -0.610600
vn -0.025200 0.999700 0.000000
vn -0.032300 0.981000 0.191400
vn -0.716900 0.691900 0.085100
vn -0.720500 0.693400 0.000000
vn 0.504100 0.566900 -0.651500
vn 0.783300 0.603300 -0.149500
vn -0.716900 0.691900 -0.085100
vn -0.643400 0.765400 0.010300
vn -0.581600 0.603300 -0.545700
vn -0.032300 0.981000 -0.191400
vn 0.783300 0.603300 0.149500
vn 0.504100 0.566900 0.651500
vn -0.581600 0.603300 0.545700
vn -0.643400 0.765400 -0.010300
vn -0.212300 0.958600 -0.189400
vn -0.214500 0.976700 0.000000
vn -0.212300 0.958600 0.189400
vn 0.238500 -0.876400 0.418300
vn 0.345400 -0.562100 0.751400
vn -0.022600 -0.502300 0.864300
vn -0.322800 -0.469100 0.822000
vn -0.013500 -0.915800 -0.401400
vn -0.907000 -0.292200 0.303100
vn 0.238500 -0.876400 -0.418300
vn 0.415700 -0.466800 0.780500
vn -0.913300 0.029300 0.406200
vn 0.016800 -0.122500 -0.992300
vn 0.308500 0.073500 0.948400
vn -0.011600 0.091300 0.995700
vn 0.156900 -0.210500 0.964900
vn -0.246300 0.098300 0.964200
vn -0.298300 -0.128000 -0.945800
vn -0.298300 -0.128000 0.945800
vn -0.590900 0.806700 0.000000
vn 0.780500 0.625000 0.000000
usemtl None
s 1
f 1/1/1 5/2/2 6/3/3 2/4/4
f 2/4/4 6/3/3 58/5/5 59/6/6
f 5/2/2 56/7/7 57/8/8 6/3/3
f 6/3/3 57/8/8 92/9/9 58/5/5
f 1/1/1 2/4/4 7/10/10 3/11/11
f 3/11/11 7/10/10 61/12/12 62/13/13
f 2/4/4 59/6/6 60/14/14 7/10/10
f 7/10/10 60/14/14 94/15/15 61/12/12
f 1/1/1 3/11/11 8/16/16 4/17/17
f 4/17/17 8/16/16 64/18/18 65/19/19
f 3/11/11 62/13/13 63/20/20 8/16/16
f 8/16/16 63/20/20 93/21/21 64/18/18
f 1/1/1 4/17/17 9/22/22 5/2/2
f 5/2/2 9/22/22 55/23/23 56/7/7
f 4/17/17 65/19/19 66/24/24 9/22/22
f 9/22/22 66/24/24 91/25/25 55/23/23
f 10/26/26 14/27/27 15/28/28 11/29/29
f 11/29/29 15/28/28 67/30/30 68/31/31
f 14/27/27 62/32/13 61/33/12 15/28/28
f 15/28/28 61/33/12 94/34/15 67/30/30
f 10/26/26 11/29/29 16/35/32 12/36/33
f 12/37/33 16/38/32 70/39/34 71/40/35
f 11/29/29 68/31/31 69/41/36 16/35/32
f 16/38/32 69/42/36 98/43/37 70/39/34
f 10/26/26 12/36/33 17/44/38 13/45/39
f 129/46/40 136/47/41 102/48/42 101/49/43
f 12/37/33 71/40/35 72/50/44 17/51/38
f 142/52/45 141/53/46 111/54/47 115/55/48
f 10/26/26 13/45/39 18/56/49 14/27/27
f 14/27/27 18/56/49 63/57/20 62/32/13
f 135/58/50 131/59/51 104/60/52 106/61/53
f 140/62/54 139/63/55 114/64/56 118/65/57
f 19/66/58 23/67/59 24/68/60 20/69/61
f 20/69/61 24/68/60 76/70/62 77/71/63
f 23/67/59 71/40/35 70/39/34 24/68/60
f 24/68/60 70/39/34 98/43/37 76/70/62
f 19/66/58 20/69/61 25/72/64 21/73/65
f 21/73/65 25/72/64 79/74/66 80/75/67
f 20/69/61 77/71/63 78/76/68 25/72/64
f 25/72/64 78/76/68 96/77/69 79/74/66
f 19/66/58 21/73/65 26/78/70 22/79/71
f 22/79/71 26/78/70 82/80/72 83/81/73
f 21/73/65 80/75/67 81/82/74 26/78/70
f 26/78/70 81/82/74 95/83/75 82/80/72
f 19/66/58 22/79/71 27/84/76 23/67/59
f 23/67/59 27/84/76 72/50/44 71/40/35
f 22/79/71 83/81/73 84/85/77 27/84/76
f 27/84/76 84/85/77 97/86/78 72/50/44
f 28/87/79 32/88/80 33/89/81 29/90/82
f 29/90/82 33/89/81 85/91/83 86/92/84
f 32/93/80 80/75/67 79/74/66 33/94/81
f 33/94/81 79/74/66 96/77/69 85/95/83
f 28/87/79 29/90/82 34/96/85 30/97/86
f 30/97/86 34/96/85 57/98/8 56/99/7
f 29/90/82 86/92/84 87/100/87 34/96/85
f 34/96/85 87/100/87 92/101/9 57/98/8
f 28/87/79 30/97/86 35/102/88 31/103/89
f 132/104/90 129/105/40 101/106/43 99/107/91
f 30/97/86 56/99/7 55/108/23 35/102/88
f 134/109/92 130/110/93 116/111/94 105/112/95
f 28/87/79 31/103/89 36/113/96 32/88/80
f 32/93/80 36/114/96 81/82/74 80/75/67
f 131/59/51 132/104/90 99/107/91 104/60/52
f 133/115/97 134/109/92 105/112/95 100/116/98
f 37/117/99 41/118/100 42/119/101 38/120/102
f 38/120/102 42/119/101 66/121/24 65/122/19
f 41/118/100 89/123/103 88/124/104 42/119/101
f 42/119/101 88/124/104 91/125/25 66/121/24
f 37/117/99 38/120/102 43/126/105 39/127/106
f 39/127/106 43/126/105 75/128/107 74/129/108
f 38/120/102 65/122/19 64/130/18 43/126/105
f 43/126/105 64/130/18 93/131/21 75/128/107
f 37/117/99 39/127/106 44/132/109 40/133/110
f 40/134/110 44/135/109 84/85/77 83/81/73
f 39/127/106 74/129/108 73/136/111 44/132/109
f 44/135/109 73/137/111 97/86/78 84/85/77
f 37/117/99 40/133/110 45/138/112 41/118/100
f 41/118/100 45/138/112 90/139/113 89/123/103
f 40/134/110 83/81/73 82/80/72 45/140/112
f 45/140/112 82/80/72 95/83/75 90/141/113
f 46/142/114 50/143/115 51/144/116 47/145/117
f 76/70/62 98/43/37 127/146/118 125/147/119
f 50/143/115 86/92/84 85/91/83 51/144/116
f 69/42/36 52/148/120 124/149/121 126/150/122
f 46/142/114 47/145/117 52/151/120 48/152/123
f 48/152/123 52/151/120 69/41/36 68/31/31
f 96/77/69 78/76/68 123/153/124 128/154/125
f 51/155/116 85/95/83 122/156/126 121/157/127
f 46/142/114 48/152/123 53/158/128 49/159/129
f 49/159/129 53/158/128 60/160/14 59/161/6
f 48/152/123 68/31/31 67/30/30 53/158/128
f 53/158/128 67/30/30 94/34/15 60/160/14
f 46/142/114 49/159/129 54/162/130 50/143/115
f 50/143/115 54/162/130 87/100/87 86/92/84
f 49/159/129 59/161/6 58/163/5 54/162/130
f 54/162/130 58/163/5 92/101/9 87/100/87
f 99/107/91 101/106/43 103/164/131 100/116/98
f 101/49/43 102/48/42 117/165/132 103/166/131
f 99/107/91 100/116/98 105/112/95 104/60/52
f 104/60/52 105/112/95 116/111/94 106/61/53
f 107/167/133 109/168/134 111/54/47 108/169/135
f 109/168/134 110/170/136 115/55/48 111/54/47
f 107/167/133 108/169/135 113/171/137 112/172/138
f 112/173/138 113/174/137 118/65/57 114/64/56
f 143/175/139 142/176/45 115/177/48 110/178/136
f 141/53/46 144/179/140 108/169/135 111/54/47
f 146/180/141 145/181/142 107/167/133 112/172/138
f 136/47/41 137/182/143 117/165/132 102/48/42
f 145/181/142 147/183/144 109/168/134 107/167/133
f 144/179/140 148/184/145 113/171/137 108/169/135
f 137/182/143 138/185/146 103/166/131 117/165/132
f 148/186/145 140/62/54 118/65/57 113/174/137
f 139/63/55 146/187/141 112/173/138 114/64/56
f 138/188/146 133/115/97 100/116/98 103/164/131
f 147/183/144 143/189/139 110/170/136 109/168/134
f 130/190/93 135/191/50 106/192/53 116/193/94
f 119/194/147 121/157/127 123/153/124 120/195/148
f 121/157/127 122/156/126 128/154/125 123/153/124
f 119/194/147 120/195/148 125/147/119 124/149/121
f 124/149/121 125/147/119 127/146/118 126/150/122
f 47/196/117 51/155/116 121/157/127 119/194/147
f 77/71/63 76/70/62 125/147/119 120/195/148
f 98/43/37 69/42/36 126/150/122 127/146/118
f 52/148/120 47/196/117 119/194/147 124/149/121
f 85/95/83 96/77/69 128/154/125 122/156/126
f 78/76/68 77/71/63 120/195/148 123/153/124
f 93/21/21 63/20/20 135/191/50 130/190/93
f 73/136/111 74/129/108 133/115/97 138/188/146
f 97/86/78 73/137/111 138/185/146 137/182/143
f 72/50/44 97/86/78 137/182/143 136/47/41
f 74/129/108 75/128/107 134/109/92 133/115/97
f 18/56/49 13/45/39 132/104/90 131/59/51
f 75/128/107 93/131/21 130/110/93 134/109/92
f 13/45/39 17/44/38 129/105/40 132/104/90
f 63/57/20 18/56/49 131/59/51 135/58/50
f 17/51/38 72/50/44 136/47/41 129/46/40
f 35/102/88 55/108/23 143/189/139 147/183/144
f 81/82/74 36/114/96 146/187/141 139/63/55
f 90/141/113 95/83/75 140/62/54 148/186/145
f 89/123/103 90/139/113 148/184/145 144/179/140
f 31/103/89 35/102/88 147/183/144 145/181/142
f 36/113/96 31/103/89 145/181/142 146/180/141
f 88/124/104 89/123/103 144/179/140 141/53/46
f 55/23/23 91/25/25 142/176/45 143/175/139
f 95/83/75 81/82/74 139/63/55 140/62/54
f 91/125/25 88/124/104 141/53/46 142/52/45
